<svg width="40" height="40" viewBox="0 0 40 40" fill="none" xmlns="http://www.w3.org/2000/svg">
<path d="M32.1666 10.5C33.8333 12.3333 34.8333 14.3333 34.8333 17.6666C34.8333 23.5 30.6666 28.6666 24.8333 31.3333L23.3333 29.1666C28.8333 26.1666 30 22.3333 30.3333 19.8333C29.5 20.3333 28.3333 20.5 27.1666 20.3333C24.1666 20 21.8333 17.6666 21.8333 14.5C21.8333 13 22.5 11.5 23.5 10.3333C24.6666 9.16665 26 8.66665 27.6666 8.66665C29.5 8.66665 31.1666 9.49998 32.1666 10.5ZM15.5 10.5C17.1666 12.3333 18.1666 14.3333 18.1666 17.6666C18.1666 23.5 14 28.6666 8.16664 31.3333L6.66664 29.1666C12.1666 26.1666 13.3333 22.3333 13.6666 19.8333C12.8333 20.3333 11.6666 20.5 10.5 20.3333C7.49998 20 5.16664 17.6666 5.16664 14.5C5.16664 13 5.83331 11.5 6.83331 10.3333C7.83331 9.16665 9.33331 8.66665 11 8.66665C12.8333 8.66665 14.5 9.49998 15.5 10.5Z" fill="#4187ED"/>
</svg>
